<svg width="20" height="20" viewBox="0 0 20 20" fill="none" xmlns="http://www.w3.org/2000/svg">
<path d="M13.6616 14.8706L9.23275 10L13.6616 5.12944C13.8792 4.89003 14.0002 4.57344 14 4.24449C13.9998 3.91555 13.8783 3.59913 13.6604 3.36004C13.5568 3.24634 13.432 3.15575 13.2935 3.09384C13.155 3.03193 13.0058 3 12.8549 3C12.7041 3 12.5549 3.03193 12.4164 3.09384C12.2779 3.15575 12.153 3.24634 12.0495 3.36004L6 10L12.0495 16.64C12.153 16.7537 12.2779 16.8442 12.4164 16.9062C12.5549 16.9681 12.7041 17 12.8549 17C13.0058 17 13.155 16.9681 13.2935 16.9062C13.432 16.8442 13.5568 16.7537 13.6604 16.64C13.8778 16.4008 13.9988 16.0845 13.9988 15.7559C13.9988 15.4272 13.8778 15.111 13.6604 14.8718L13.6616 14.8706Z" fill="#222222"/>
</svg>
