<svg width="20" height="20" viewBox="0 0 20 20" fill="none" xmlns="http://www.w3.org/2000/svg">
<path d="M6.33839 14.8706L10.7673 10L6.33839 5.12944C6.12084 4.89003 5.99978 4.57344 6 4.24449C6.00023 3.91555 6.12172 3.59913 6.3396 3.36004C6.44315 3.24634 6.56801 3.15575 6.70651 3.09384C6.84501 3.03193 6.99425 3 7.14507 3C7.29589 3 7.44513 3.03193 7.58363 3.09384C7.72214 3.15575 7.84699 3.24634 7.95054 3.36004L14 10L7.95054 16.64C7.84699 16.7537 7.72214 16.8442 7.58363 16.9062C7.44513 16.9681 7.29589 17 7.14507 17C6.99425 17 6.84501 16.9681 6.70651 16.9062C6.56801 16.8442 6.44315 16.7537 6.3396 16.64C6.12223 16.4008 6.00118 16.0845 6.00118 15.7559C6.00118 15.4272 6.12223 15.111 6.3396 14.8718L6.33839 14.8706Z" fill="#222222"/>
</svg>
