<svg width="20" height="20" viewBox="0 0 20 20" fill="none" xmlns="http://www.w3.org/2000/svg">
<path d="M7.2538 13.479L10.5754 10L7.2538 6.52103C7.09063 6.35002 6.99983 6.12388 7 5.88892C7.00017 5.65396 7.09129 5.42795 7.2547 5.25717C7.33237 5.17595 7.426 5.11125 7.52988 5.06703C7.63376 5.02281 7.74568 5 7.8588 5C7.97192 5 8.08385 5.02281 8.18772 5.06703C8.2916 5.11125 8.38524 5.17595 8.4629 5.25717L13 10L8.4629 14.7428C8.38524 14.824 8.2916 14.8887 8.18772 14.933C8.08385 14.9772 7.97192 15 7.8588 15C7.74568 15 7.63376 14.9772 7.52988 14.933C7.426 14.8887 7.33237 14.824 7.2547 14.7428C7.09167 14.572 7.00088 14.3461 7.00088 14.1113C7.00088 13.8766 7.09167 13.6507 7.2547 13.4799L7.2538 13.479Z" fill="#0670EB"/>
</svg>
