<svg width="14" height="10" viewBox="0 0 14 10" fill="none" xmlns="http://www.w3.org/2000/svg">
<path d="M10.4146 2.75359e-08C11.1799 -0.000105053 11.9145 0.300542 12.4601 0.837113C13.0057 1.37368 13.3186 2.10319 13.3313 2.86833C13.4063 3.58917 13.3955 4.6525 12.908 5.88C12.4096 7.135 11.438 8.50333 9.66464 9.83333C9.5771 9.89899 9.47747 9.94677 9.37146 9.97393C9.26545 10.0011 9.15513 10.0071 9.04679 9.99162C8.828 9.96037 8.63058 9.84348 8.49798 9.66667C8.36537 9.48985 8.30843 9.26761 8.33969 9.04881C8.37094 8.83002 8.48783 8.63261 8.66464 8.5C9.96798 7.5225 10.7146 6.5725 11.1421 5.74167C10.7413 5.84459 10.3232 5.86106 9.91557 5.78996C9.50792 5.71887 9.12006 5.56185 8.77776 5.32932C8.43546 5.0968 8.14656 4.7941 7.93024 4.44134C7.71392 4.08857 7.57515 3.69382 7.52313 3.28329C7.47112 2.87277 7.50705 2.45587 7.62855 2.06031C7.75005 1.66474 7.95433 1.29955 8.22782 0.989004C8.50131 0.678457 8.83775 0.429661 9.21479 0.259143C9.59183 0.0886242 10.0008 0.000287181 10.4146 2.75359e-08ZM2.91464 2.75359e-08C3.67989 -0.000105053 4.41452 0.300542 4.96013 0.837113C5.50575 1.37368 5.81863 2.10319 5.83131 2.86833C5.90631 3.58917 5.89548 4.6525 5.40798 5.88C4.91048 7.135 3.93798 8.50333 2.16464 9.83333C2.07709 9.89899 1.97747 9.94677 1.87146 9.97393C1.76545 10.0011 1.65513 10.0071 1.54679 9.99162C1.328 9.96037 1.13058 9.84348 0.997976 9.66667C0.865368 9.48985 0.808429 9.26761 0.839685 9.04881C0.870941 8.83002 0.987832 8.63261 1.16464 8.5C2.46798 7.5225 3.21464 6.5725 3.64214 5.74167C3.24134 5.84459 2.82323 5.86106 2.41557 5.78996C2.00792 5.71887 1.62006 5.56185 1.27776 5.32932C0.935459 5.0968 0.646556 4.7941 0.43024 4.44134C0.213925 4.08857 0.0751502 3.69382 0.0231346 3.28329C-0.0288811 2.87277 0.00705313 2.45587 0.128551 2.06031C0.250048 1.66474 0.454327 1.29955 0.727817 0.989004C1.00131 0.678457 1.33775 0.429661 1.71479 0.259143C2.09183 0.0886242 2.50084 0.000287181 2.91464 2.75359e-08Z" fill="#222222"/>
</svg>
