<svg width="14" height="10" viewBox="0 0 14 10" fill="none" xmlns="http://www.w3.org/2000/svg">
<path d="M2.95108 10C2.18583 10.0001 1.4512 9.69946 0.905586 9.16289C0.359974 8.62632 0.0470943 7.89681 0.0344133 7.13167C-0.0405874 6.41083 -0.0297537 5.3475 0.457746 4.12C0.956079 2.865 1.92775 1.49667 3.70108 0.166668C3.78863 0.101007 3.88825 0.0532322 3.99426 0.0260725C4.10027 -0.00108719 4.2106 -0.00710106 4.31893 0.00837612C4.53772 0.0396318 4.73514 0.156523 4.86775 0.333334C5.00035 0.510145 5.05729 0.732393 5.02604 0.951186C4.99478 1.16998 4.87789 1.36739 4.70108 1.5C3.39775 2.4775 2.65108 3.4275 2.22358 4.25833C2.62438 4.15541 3.0425 4.13894 3.45015 4.21004C3.8578 4.28113 4.24566 4.43815 4.58796 4.67068C4.93026 4.9032 5.21917 5.2059 5.43548 5.55866C5.6518 5.91143 5.79057 6.30618 5.84259 6.71671C5.8946 7.12723 5.85867 7.54413 5.73717 7.93969C5.61567 8.33526 5.4114 8.70045 5.13791 9.011C4.86442 9.32154 4.52798 9.57034 4.15094 9.74086C3.7739 9.91138 3.36489 9.99971 2.95108 10ZM10.4511 10C9.68583 10.0001 8.9512 9.69946 8.40559 9.16289C7.85997 8.62632 7.54709 7.89681 7.53441 7.13167C7.45941 6.41083 7.47025 5.3475 7.95775 4.12C8.45525 2.865 9.42775 1.49667 11.2011 0.166668C11.2886 0.101007 11.3883 0.0532322 11.4943 0.0260725C11.6003 -0.00108719 11.7106 -0.00710106 11.8189 0.00837612C12.0377 0.0396318 12.2351 0.156523 12.3677 0.333334C12.5004 0.510145 12.5573 0.732393 12.526 0.951186C12.4948 1.16998 12.3779 1.36739 12.2011 1.5C10.8977 2.4775 10.1511 3.4275 9.72358 4.25833C10.1244 4.15541 10.5425 4.13894 10.9502 4.21004C11.3578 4.28113 11.7457 4.43815 12.088 4.67068C12.4303 4.9032 12.7192 5.2059 12.9355 5.55866C13.1518 5.91143 13.2906 6.30618 13.3426 6.71671C13.3946 7.12723 13.3587 7.54413 13.2372 7.93969C13.1157 8.33526 12.9114 8.70045 12.6379 9.011C12.3644 9.32154 12.028 9.57034 11.6509 9.74086C11.2739 9.91138 10.8649 9.99971 10.4511 10Z" fill="#222222"/>
</svg>
