<svg width="20" height="20" viewBox="0 0 20 20" fill="none" xmlns="http://www.w3.org/2000/svg">
<path fill-rule="evenodd" clip-rule="evenodd" d="M10 3C8.89543 3 8 3.89543 8 5V6C8 7.10457 8.89543 8 10 8C11.1046 8 12 7.10457 12 6V5C12 3.89543 11.1046 3 10 3ZM17.0012 12C17.0012 9.21465 15.3621 5.81128 13.0012 4.68506V7C13.0012 8.10278 12.1041 9 11.0012 9H9.00124C7.89843 9 7.00124 8.10278 7.00124 7V4.68506C4.64043 5.81128 3.00124 9.21465 3.00124 12H17.0012ZM1 14.5C1 13.6716 1.67157 13 2.5 13H17.5C18.3284 13 19 13.6716 19 14.5C19 15.3284 18.3284 16 17.5 16H2.5C1.67157 16 1 15.3284 1 14.5Z" fill="#222222"/>
</svg>
