<svg width="18" height="13" viewBox="0 0 18 13" fill="none" xmlns="http://www.w3.org/2000/svg">
<path fill-rule="evenodd" clip-rule="evenodd" d="M9 0C7.89543 0 7 0.89543 7 2V3C7 4.10457 7.89543 5 9 5C10.1046 5 11 4.10457 11 3V2C11 0.895431 10.1046 0 9 0ZM16.0012 9C16.0012 6.21465 14.3621 2.81128 12.0012 1.68506V4C12.0012 5.10278 11.1041 6 10.0012 6H8.00124C6.89843 6 6.00124 5.10278 6.00124 4V1.68506C3.64043 2.81128 2.00124 6.21465 2.00124 9H16.0012ZM0 11.5C0 10.6716 0.671573 10 1.5 10H16.5C17.3284 10 18 10.6716 18 11.5C18 12.3284 17.3284 13 16.5 13H1.5C0.671573 13 0 12.3284 0 11.5Z" fill="#222222"/>
</svg>
