<svg width="18" height="14" viewBox="0 0 18 14" fill="none" xmlns="http://www.w3.org/2000/svg">
<path d="M13.275 1.48739e-08C13.7881 -6.12691e-05 14.2821 0.189258 14.6572 0.529698C15.0322 0.870138 15.2604 1.33631 15.2955 1.834L15.3 1.96875V11.8125C15.2998 11.9218 15.3417 12.0273 15.4175 12.1081C15.4932 12.1889 15.5973 12.2391 15.7093 12.249C15.8213 12.2589 15.9331 12.2276 16.0225 12.1614C16.112 12.0952 16.1728 11.9988 16.1928 11.8913L16.2 11.8125V2.63725C16.6697 2.68831 17.1063 2.89753 17.4341 3.22865C17.7618 3.55977 17.9601 3.99193 17.9946 4.45025L18 4.59375V11.1562C18 11.8826 17.7142 12.5815 17.2011 13.1095C16.688 13.6374 15.9865 13.9545 15.2406 13.9956L15.075 14H2.925C2.17788 14 1.45905 13.7221 0.915992 13.2233C0.37293 12.7244 0.0467988 12.0425 0.00450012 11.3173L1.52988e-08 11.1562V1.96875C-6.30197e-05 1.46989 0.194666 0.989607 0.544832 0.624966C0.894999 0.260325 1.37449 0.0385194 1.8864 0.00437512L2.025 1.48739e-08H13.275ZM6.5232 6.125H3.3732C3.19418 6.125 3.02249 6.19414 2.8959 6.31721C2.76932 6.44028 2.6982 6.6072 2.6982 6.78125V9.84375C2.6982 10.206 3.0006 10.5 3.3732 10.5H6.5232C6.70222 10.5 6.87391 10.4309 7.0005 10.3078C7.12708 10.1847 7.1982 10.0178 7.1982 9.84375V6.78125C7.1982 6.6072 7.12708 6.44028 7.0005 6.31721C6.87391 6.19414 6.70222 6.125 6.5232 6.125ZM11.9268 9.1875H9.6786L9.5868 9.19362C9.41738 9.21629 9.26311 9.30063 9.15519 9.42961C9.04726 9.55859 8.99372 9.7226 9.00538 9.88848C9.01703 10.0544 9.09302 10.2098 9.21799 10.3233C9.34295 10.4368 9.50758 10.4999 9.6786 10.5H11.9268L12.0186 10.4939C12.188 10.4712 12.3423 10.3869 12.4502 10.2579C12.5581 10.1289 12.6117 9.9649 12.6 9.79902C12.5884 9.63314 12.5124 9.47774 12.3874 9.36423C12.2624 9.25071 12.0978 9.18755 11.9268 9.1875ZM5.8482 7.4375V9.1875H4.0482V7.4375H5.8482ZM11.925 6.125L9.6768 6.12937L9.585 6.13462C9.41393 6.15567 9.25763 6.23958 9.14818 6.36912C9.03872 6.49866 8.98441 6.66401 8.99638 6.83125C9.00836 6.99849 9.08571 7.15494 9.21257 7.26849C9.33943 7.38203 9.50618 7.44407 9.6786 7.44187L11.9277 7.4375L12.0186 7.43138C12.1881 7.4087 12.3424 7.32429 12.4504 7.19522C12.5583 7.06614 12.6118 6.90203 12.6 6.73608C12.5882 6.57013 12.5121 6.41472 12.3869 6.30128C12.2618 6.18784 12.097 6.12483 11.9259 6.125H11.925ZM11.9259 3.066H3.3732L3.2814 3.07213C3.11197 3.09479 2.95771 3.17913 2.84979 3.30811C2.74186 3.43709 2.68832 3.6011 2.69998 3.76698C2.71163 3.93286 2.78762 4.08826 2.91259 4.20177C3.03755 4.31529 3.20218 4.37845 3.3732 4.3785H11.9268L12.0186 4.37325C12.1895 4.35218 12.3456 4.26839 12.455 4.13905C12.5644 4.0097 12.6188 3.84459 12.6071 3.67752C12.5954 3.51044 12.5184 3.35405 12.3919 3.24036C12.2654 3.12668 12.099 3.0643 11.9268 3.066H11.9259Z" fill="black"/>
</svg>
