<svg width="20" height="20" viewBox="0 0 20 20" fill="none" xmlns="http://www.w3.org/2000/svg">
<path d="M14.275 3C14.7881 2.99994 15.2821 3.18926 15.6572 3.5297C16.0322 3.87014 16.2604 4.33631 16.2955 4.834L16.3 4.96875V14.8125C16.2998 14.9218 16.3417 15.0273 16.4175 15.1081C16.4932 15.1889 16.5973 15.2391 16.7093 15.249C16.8213 15.2589 16.9331 15.2276 17.0225 15.1614C17.112 15.0952 17.1728 14.9988 17.1928 14.8913L17.2 14.8125V5.63725C17.6697 5.68831 18.1063 5.89753 18.4341 6.22865C18.7618 6.55977 18.9601 6.99193 18.9946 7.45025L19 7.59375V14.1562C19 14.8826 18.7142 15.5815 18.2011 16.1095C17.688 16.6374 16.9865 16.9545 16.2406 16.9956L16.075 17H3.925C3.17788 17 2.45905 16.7221 1.91599 16.2233C1.37293 15.7244 1.0468 15.0425 1.0045 14.3173L1 14.1562V4.96875C0.999937 4.46989 1.19467 3.98961 1.54483 3.62497C1.895 3.26033 2.37449 3.03852 2.8864 3.00438L3.025 3H14.275ZM7.5232 9.125H4.3732C4.19418 9.125 4.02249 9.19414 3.8959 9.31721C3.76932 9.44028 3.6982 9.6072 3.6982 9.78125V12.8438C3.6982 13.206 4.0006 13.5 4.3732 13.5H7.5232C7.70222 13.5 7.87391 13.4309 8.0005 13.3078C8.12708 13.1847 8.1982 13.0178 8.1982 12.8438V9.78125C8.1982 9.6072 8.12708 9.44028 8.0005 9.31721C7.87391 9.19414 7.70222 9.125 7.5232 9.125ZM12.9268 12.1875H10.6786L10.5868 12.1936C10.4174 12.2163 10.2631 12.3006 10.1552 12.4296C10.0473 12.5586 9.99372 12.7226 10.0054 12.8885C10.017 13.0544 10.093 13.2098 10.218 13.3233C10.343 13.4368 10.5076 13.4999 10.6786 13.5H12.9268L13.0186 13.4939C13.188 13.4712 13.3423 13.3869 13.4502 13.2579C13.5581 13.1289 13.6117 12.9649 13.6 12.799C13.5884 12.6331 13.5124 12.4777 13.3874 12.3642C13.2624 12.2507 13.0978 12.1876 12.9268 12.1875ZM6.8482 10.4375V12.1875H5.0482V10.4375H6.8482ZM12.925 9.125L10.6768 9.12937L10.585 9.13462C10.4139 9.15567 10.2576 9.23958 10.1482 9.36912C10.0387 9.49866 9.98441 9.66401 9.99638 9.83125C10.0084 9.99849 10.0857 10.1549 10.2126 10.2685C10.3394 10.382 10.5062 10.4441 10.6786 10.4419L12.9277 10.4375L13.0186 10.4314C13.1881 10.4087 13.3424 10.3243 13.4504 10.1952C13.5583 10.0661 13.6118 9.90203 13.6 9.73608C13.5882 9.57013 13.5121 9.41472 13.3869 9.30128C13.2618 9.18784 13.097 9.12483 12.9259 9.125H12.925ZM12.9259 6.066H4.3732L4.2814 6.07213C4.11197 6.09479 3.95771 6.17913 3.84979 6.30811C3.74186 6.43709 3.68832 6.6011 3.69998 6.76698C3.71163 6.93286 3.78762 7.08826 3.91259 7.20177C4.03755 7.31529 4.20218 7.37845 4.3732 7.3785H12.9268L13.0186 7.37325C13.1895 7.35218 13.3456 7.26839 13.455 7.13905C13.5644 7.0097 13.6188 6.84459 13.6071 6.67752C13.5954 6.51044 13.5184 6.35405 13.3919 6.24036C13.2654 6.12668 13.099 6.0643 12.9268 6.066H12.9259Z" fill="#222222"/>
</svg>
