<svg width="16" height="16" viewBox="0 0 16 16" fill="none" xmlns="http://www.w3.org/2000/svg">
<path fill-rule="evenodd" clip-rule="evenodd" d="M6.96491 2C5.64814 2 4.38529 2.52309 3.45419 3.45419C2.52309 4.38529 2 5.64814 2 6.96491C2 8.28169 2.52309 9.54453 3.45419 10.4756C4.38529 11.4067 5.64814 11.9298 6.96491 11.9298C8.27407 11.9298 9.52992 11.4128 10.4594 10.4918C10.4657 10.4851 10.4722 10.4785 10.4787 10.472C10.4845 10.4662 10.4904 10.4604 10.4964 10.4548C11.4145 9.52572 11.9298 8.27188 11.9298 6.96491C11.9298 5.64814 11.4067 4.38529 10.4756 3.45419C9.54453 2.52309 8.28169 2 6.96491 2ZM12.5479 11.1291C13.4398 9.93331 13.9298 8.47437 13.9298 6.96491C13.9298 5.1177 13.196 3.34615 11.8899 2.03998C10.5837 0.733801 8.81212 0 6.96491 0C5.1177 0 3.34615 0.733801 2.03998 2.03998C0.733801 3.34615 0 5.1177 0 6.96491C0 8.81212 0.733801 10.5837 2.03998 11.8899C3.34615 13.196 5.1177 13.9298 6.96491 13.9298C8.47661 13.9298 9.93764 13.4384 11.1344 12.544L14.2924 15.7066C14.6826 16.0974 15.3158 16.0979 15.7066 15.7076C16.0974 15.3174 16.0979 14.6842 15.7076 14.2934L12.5479 11.1291Z" fill="#222222"/>
</svg>
