<svg width="20" height="20" viewBox="0 0 20 20" fill="none" xmlns="http://www.w3.org/2000/svg">
<path d="M5.5 3.7163L1.9 5.52716V1.90543L5.5 3.7163ZM15.4 1.90543V5.52716L19 3.7163L15.4 1.90543ZM9.1 1V4.62173L12.7 2.81087L9.1 1ZM3.7 8.27968C4.942 8.72334 7.093 9.14889 10 9.14889C12.907 9.14889 15.058 8.72334 16.3 8.27968C16.3 8.1167 13.798 7.33803 10 7.33803C6.202 7.33803 3.7 8.1167 3.7 8.27968ZM12.7 14.5815H7.3V19C3.646 18.6469 1 17.6056 1 16.3924V8.24346C1 6.74044 5.032 5.52716 10 5.52716C14.968 5.52716 19 6.74044 19 8.24346V16.3924C19 17.6056 16.354 18.6378 12.7 18.9909V14.5815Z" fill="black"/>
</svg>
