<svg width="20" height="19" viewBox="0 0 20 19" fill="none" xmlns="http://www.w3.org/2000/svg">
<path fill-rule="evenodd" clip-rule="evenodd" d="M0 1.5C0 0.671573 0.671573 0 1.5 0H18.5C19.3284 0 20 0.671573 20 1.5C20 2.32843 19.3284 3 18.5 3H1.5C0.671573 3 0 2.32843 0 1.5ZM0 9.5C0 8.67157 0.671573 8 1.5 8H18.5C19.3284 8 20 8.67157 20 9.5C20 10.3284 19.3284 11 18.5 11H1.5C0.671573 11 0 10.3284 0 9.5ZM1.5 16C0.671573 16 0 16.6716 0 17.5C0 18.3284 0.671573 19 1.5 19H18.5C19.3284 19 20 18.3284 20 17.5C20 16.6716 19.3284 16 18.5 16H1.5Z" fill="#222222"/>
</svg>
