<svg width="14" height="14" viewBox="0 0 14 14" fill="none" xmlns="http://www.w3.org/2000/svg">
<path fill-rule="evenodd" clip-rule="evenodd" d="M13.6465 2.0603C14.1178 1.58898 14.1178 0.824814 13.6465 0.353492C13.1752 -0.117831 12.411 -0.117831 11.9397 0.353492L7 5.29319L2.0603 0.353492C1.58898 -0.117831 0.824814 -0.117831 0.353492 0.353492C-0.117831 0.824814 -0.117831 1.58898 0.353492 2.0603L5.29319 7L0.353492 11.9397C-0.117831 12.411 -0.117831 13.1752 0.353492 13.6465C0.824814 14.1178 1.58898 14.1178 2.0603 13.6465L7 8.70681L11.9397 13.6465C12.411 14.1178 13.1752 14.1178 13.6465 13.6465C14.1178 13.1752 14.1178 12.411 13.6465 11.9397L8.70681 7L13.6465 2.0603Z" fill="#222222"/>
</svg>
