<svg width="32" height="32" viewBox="0 0 32 32" fill="none" xmlns="http://www.w3.org/2000/svg">
<path d="M24.32 0H7.68C3.43845 0 0 3.43845 0 7.68V24.32C0 28.5615 3.43845 32 7.68 32H24.32C28.5615 32 32 28.5615 32 24.32V7.68C32 3.43845 28.5615 0 24.32 0Z" fill="#E9436A"/>
<path fill-rule="evenodd" clip-rule="evenodd" d="M26.6083 11.6055C26.5584 10.4719 26.375 9.69264 26.1125 9.01737C25.8416 8.30057 25.4248 7.65885 24.8788 7.12541C24.3453 6.58365 23.6994 6.16264 22.9909 5.89599C22.3117 5.6334 21.5365 5.4501 20.403 5.40012C19.261 5.34591 18.8985 5.33337 16.002 5.33337C13.1056 5.33337 12.7431 5.34591 11.6053 5.39589C10.4718 5.44587 9.6925 5.62933 9.01743 5.89175C8.3005 6.16264 7.65878 6.57942 7.12527 7.12541C6.58351 7.65885 6.16269 8.30486 5.89586 9.01328C5.63328 9.69264 5.44998 10.4677 5.4 11.6012C5.34579 12.7432 5.33325 13.1058 5.33325 16.0021C5.33325 18.8986 5.34579 19.2611 5.39577 20.3989C5.44574 21.5324 5.62921 22.3117 5.8918 22.987C6.16269 23.7037 6.58351 24.3454 7.12527 24.8789C7.65878 25.4207 8.30473 25.8417 9.01321 26.1083C9.6925 26.3709 10.4675 26.5542 11.6012 26.6042C12.7388 26.6544 13.1016 26.6667 15.998 26.6667C18.8944 26.6667 19.2569 26.6544 20.3946 26.6042C21.5282 26.5542 22.3075 26.3709 22.9826 26.1083C24.4163 25.554 25.5498 24.4205 26.1042 22.987C26.3666 22.3076 26.55 21.5324 26.6 20.3989C26.65 19.2611 26.6625 18.8986 26.6625 16.0021C26.6625 13.1058 26.6583 12.7432 26.6083 11.6055ZM24.6872 20.3155C24.6413 21.3574 24.4663 21.92 24.3204 22.2951C23.9619 23.2245 23.2243 23.9621 22.2949 24.3205C21.9199 24.4664 21.3532 24.6414 20.3154 24.6871C19.1902 24.7373 18.8527 24.7497 16.0063 24.7497C13.1598 24.7497 12.8181 24.7373 11.697 24.6871C10.6551 24.6414 10.0925 24.4664 9.7174 24.3205C9.25494 24.1496 8.83394 23.8787 8.49225 23.5245C8.13801 23.1785 7.8671 22.7618 7.69622 22.2993C7.55036 21.9243 7.37532 21.3574 7.32956 20.3198C7.27945 19.1945 7.26709 18.8569 7.26709 16.0105C7.26709 13.1641 7.27945 12.8223 7.32956 11.7013C7.37532 10.6595 7.55036 10.0969 7.69622 9.72176C7.8671 9.2591 8.13801 8.8383 8.49647 8.49641C8.84226 8.14217 9.25903 7.87133 9.72169 7.70057C10.0967 7.55465 10.6636 7.37968 11.7012 7.33379C12.8265 7.28381 13.1641 7.27126 16.0103 7.27126C18.861 7.27126 19.1985 7.28381 20.3196 7.33379C21.3615 7.37968 21.9241 7.55465 22.2992 7.70057C22.7617 7.87133 23.1827 8.14217 23.5244 8.49641C23.8786 8.8424 24.1495 9.2591 24.3204 9.72176C24.4663 10.0969 24.6413 10.6635 24.6872 11.7013C24.7372 12.8266 24.7497 13.1641 24.7497 16.0105C24.7497 18.8569 24.7372 19.1903 24.6872 20.3155ZM16.0006 10.5218C12.9751 10.5218 10.5203 12.9764 10.5203 16.0021C10.5203 19.0277 12.9751 21.4823 16.0006 21.4823C19.0263 21.4823 21.4809 19.0277 21.4809 16.0021C21.4809 12.9764 19.0263 10.5218 16.0006 10.5218ZM16.0006 19.557C14.0378 19.557 12.4457 17.965 12.4457 16.0021C12.4457 14.0391 14.0378 12.4471 16.0006 12.4471C17.9635 12.4471 19.5555 14.0391 19.5555 16.0021C19.5555 17.965 17.9635 19.557 16.0006 19.557ZM21.6976 11.5848C22.4043 11.5848 22.9772 11.0119 22.9772 10.3054C22.9772 9.59875 22.4043 9.02601 21.6976 9.02601C20.9911 9.02601 20.4183 9.59875 20.4183 10.3054C20.4183 11.0119 20.9911 11.5848 21.6976 11.5848Z" fill="white"/>
</svg>
