<svg width="32" height="32" viewBox="0 0 32 32" fill="none" xmlns="http://www.w3.org/2000/svg">
<rect width="32" height="32" rx="8" fill="#00639F"/>
<path fill-rule="evenodd" clip-rule="evenodd" d="M6.40015 7.63896C6.40015 6.36617 7.43294 5.33337 8.70573 5.33337C9.97772 5.33337 11.0105 6.36617 11.0113 7.63896C11.0113 8.91175 9.97852 9.96615 8.70573 9.96615C7.43294 9.96615 6.40015 8.91175 6.40015 7.63896ZM25.5954 24.5333V24.5325H25.6002V17.4909C25.6002 14.0462 24.8586 11.3926 20.8314 11.3926C18.8954 11.3926 17.5962 12.455 17.0658 13.4622H17.0098V11.7142H13.1914V24.5325H17.1674V18.1853C17.1674 16.5141 17.4842 14.8982 19.5538 14.8982C21.593 14.8982 21.6234 16.8053 21.6234 18.2925V24.5333H25.5954ZM6.7168 11.7147H10.6976V24.533H6.7168V11.7147Z" fill="white"/>
</svg>
