<svg width="20" height="20" viewBox="0 0 20 20" fill="none" xmlns="http://www.w3.org/2000/svg">
<path fill-rule="evenodd" clip-rule="evenodd" d="M0.399902 2.63908C0.399902 1.36629 1.4327 0.333496 2.70549 0.333496C3.97748 0.333496 5.01027 1.36629 5.01107 2.63908C5.01107 3.91187 3.97828 4.96627 2.70549 4.96627C1.4327 4.96627 0.399902 3.91187 0.399902 2.63908ZM19.5951 19.5334V19.5326H19.5999V12.4911C19.5999 9.04628 18.8583 6.3927 14.8311 6.3927C12.8951 6.3927 11.5959 7.45509 11.0655 8.46229H11.0095V6.7143H7.19116V19.5326H11.1671V13.1855C11.1671 11.5143 11.4839 9.89828 13.5535 9.89828C15.5927 9.89828 15.6231 11.8055 15.6231 13.2927V19.5334H19.5951ZM0.716553 6.71483H4.69733V19.5331H0.716553V6.71483Z" fill="white"/>
</svg>
