<svg width="139" height="52" viewBox="0 0 139 52" fill="none" xmlns="http://www.w3.org/2000/svg">
<path d="M47.8604 6.10551H50.1026V7.00236C50.8787 6.22624 51.7583 5.8468 52.7414 5.8468C53.8624 5.8468 54.742 6.20899 55.3802 6.91612C55.9149 7.51977 56.1908 8.50286 56.1908 9.86538V15.7984H53.9487V10.4C53.9487 9.45145 53.8107 8.79606 53.552 8.41662C53.2933 8.05443 52.8276 7.86471 52.1377 7.86471C51.3961 7.86471 50.8614 8.10618 50.551 8.60634C50.2405 9.08926 50.0853 9.93437 50.0853 11.1417V15.8156H47.8432V6.10551H47.8604Z" fill="#6926AA"/>
<path d="M58.3094 10.866C58.3094 9.46898 58.8096 8.27893 59.8099 7.29584C60.8102 6.31275 62.0348 5.82983 63.4663 5.82983C64.915 5.82983 66.1396 6.33 67.1399 7.31309C68.1403 8.29618 68.6232 9.50348 68.6232 10.9522C68.6232 12.401 68.123 13.6255 67.1227 14.5914C66.1224 15.5572 64.8806 16.0574 63.4145 16.0574C61.9658 16.0574 60.7412 15.5572 59.7754 14.5741C58.7923 13.591 58.3094 12.3493 58.3094 10.866ZM60.586 10.9177C60.586 11.8836 60.8447 12.6425 61.3621 13.2116C61.8968 13.7808 62.5867 14.074 63.4663 14.074C64.3459 14.074 65.0358 13.798 65.5704 13.2289C66.0879 12.6597 66.3638 11.9181 66.3638 10.9695C66.3638 10.0209 66.1051 9.27926 65.5704 8.71011C65.0358 8.14095 64.3459 7.84775 63.4663 7.84775C62.6039 7.84775 61.914 8.14095 61.3966 8.71011C60.862 9.27926 60.586 10.0036 60.586 10.9177Z" fill="#6926AA"/>
<path d="M71.5641 6.10547L74.0994 11.6246L76.8245 5.20862L79.584 11.6246L82.0849 6.10547H84.5857L79.515 16.5055L76.8245 10.2793L74.0994 16.5055L69.046 6.10547H71.5641Z" fill="#6926AA"/>
<path d="M94.3047 11.4692H87.3714C87.4231 12.2626 87.6818 12.9008 88.1475 13.3664C88.5959 13.8321 89.1823 14.0563 89.9067 14.0563C90.4586 14.0563 90.9243 13.9183 91.2865 13.6596C91.6487 13.4009 92.0453 12.9008 92.511 12.1936L94.391 13.2457C94.0978 13.7459 93.7873 14.1598 93.4596 14.522C93.1319 14.8842 92.787 15.1601 92.4248 15.4016C92.0453 15.6258 91.6487 15.7983 91.2175 15.9018C90.7863 16.0052 90.3206 16.057 89.8205 16.057C88.3717 16.057 87.2161 15.5913 86.3365 14.66C85.4569 13.7286 85.0258 12.4868 85.0258 10.9518C85.0258 9.41684 85.4569 8.19229 86.302 7.2437C87.1644 6.31235 88.2855 5.84668 89.6997 5.84668C91.1312 5.84668 92.2523 6.2951 93.0802 7.2092C93.908 8.10605 94.3047 9.3651 94.3047 10.9518V11.4692ZM92.0108 9.64105C91.7004 8.451 90.9415 7.84735 89.7515 7.84735C89.4755 7.84735 89.2168 7.88184 88.9926 7.96808C88.7511 8.05431 88.5442 8.17504 88.3372 8.33027C88.1475 8.48549 87.975 8.67521 87.837 8.89942C87.6991 9.12363 87.5956 9.3651 87.5266 9.64105H92.0108Z" fill="#6926AA"/>
<path d="M47.52 19.7652C47.52 19.3685 47.658 19.0408 47.9512 18.7476C48.2444 18.4544 48.5721 18.3164 48.9688 18.3164C49.3655 18.3164 49.7104 18.4544 50.0036 18.7476C50.2968 19.0235 50.4348 19.3685 50.4348 19.7652C50.4348 20.1618 50.2968 20.5068 50.0036 20.8C49.7277 21.0932 49.3827 21.2312 48.986 21.2312C48.5893 21.2312 48.2444 21.0932 47.9512 20.8C47.658 20.524 47.52 20.1791 47.52 19.7652ZM50.0898 23.801V33.4766H47.8477V23.801H50.0898Z" fill="#6926AA"/>
<path d="M52.8024 23.8012H55.0445V24.698C55.8206 23.9219 56.7003 23.5425 57.6833 23.5425C58.8044 23.5425 59.684 23.9047 60.3222 24.6118C60.8568 25.2154 61.1328 26.1985 61.1328 27.5611V33.4941H58.8906V28.0957C58.8906 27.1471 58.7527 26.4917 58.494 26.1123C58.2352 25.7501 57.7696 25.5604 57.0797 25.5604C56.3381 25.5604 55.8034 25.8019 55.493 26.302C55.1825 26.7849 55.0273 27.63 55.0273 28.8373V33.5113H52.7852V23.8012H52.8024Z" fill="#6926AA"/>
<path d="M64.6034 23.8013L67.1387 29.3204L69.8638 22.9044L72.6233 29.3204L75.1242 23.8013H77.625L72.5543 34.2013L69.8638 27.9751L67.1387 34.2013L62.0853 23.8013H64.6034Z" fill="#6926AA"/>
<path d="M87.3622 29.165H80.4289C80.4806 29.9584 80.7393 30.5966 81.205 31.0622C81.6534 31.5279 82.2398 31.7521 82.9642 31.7521C83.5161 31.7521 83.9818 31.6141 84.344 31.3554C84.7062 31.0967 85.1028 30.5966 85.5685 29.8894L87.4484 30.9415C87.1552 31.4417 86.8448 31.8556 86.5171 32.2178C86.1894 32.58 85.8445 32.8559 85.4823 33.0974C85.1028 33.3216 84.7061 33.4941 84.275 33.5976C83.8438 33.701 83.3781 33.7528 82.878 33.7528C81.4292 33.7528 80.2736 33.2871 79.394 32.3558C78.5144 31.4244 78.0833 30.1826 78.0833 28.6476C78.0833 27.1126 78.5144 25.8881 79.3595 24.9395C80.2219 24.0081 81.343 23.5425 82.7572 23.5425C84.1887 23.5425 85.3098 23.9909 86.1377 24.905C86.9655 25.8019 87.3622 27.0609 87.3622 28.6476V29.165ZM85.0683 27.3369C84.7579 26.1468 83.999 25.5431 82.809 25.5431C82.533 25.5431 82.2743 25.5776 82.0501 25.6639C81.8086 25.7501 81.6017 25.8708 81.3947 26.0261C81.205 26.1813 81.0325 26.371 80.8945 26.5952C80.7566 26.8194 80.6531 27.0609 80.5841 27.3369H85.0683Z" fill="#6926AA"/>
<path d="M95.2311 25.4395L93.3857 26.4225C93.0925 25.8189 92.7303 25.5257 92.2991 25.5257C92.0921 25.5257 91.9197 25.5947 91.7644 25.7327C91.6265 25.8706 91.5402 26.0431 91.5402 26.2501C91.5402 26.6295 91.9714 26.9917 92.8338 27.3539C94.0238 27.8713 94.8172 28.337 95.2311 28.7682C95.645 29.1993 95.852 29.7857 95.852 30.5101C95.852 31.4415 95.5071 32.2176 94.8172 32.8557C94.1446 33.4594 93.3339 33.7526 92.3853 33.7526C90.7641 33.7526 89.6086 32.9592 88.9359 31.3725L90.8504 30.4929C91.1091 30.9585 91.316 31.2517 91.454 31.3725C91.73 31.6312 92.0576 31.7519 92.4198 31.7519C93.1787 31.7519 93.5582 31.407 93.5582 30.7171C93.5582 30.3204 93.2649 29.941 92.6785 29.596C92.4543 29.4753 92.2301 29.3718 92.0059 29.2683C91.7817 29.1648 91.5575 29.0614 91.316 28.9406C90.6606 28.6302 90.2122 28.3025 89.9535 27.992C89.6086 27.5953 89.4533 27.0607 89.4533 26.4398C89.4533 25.5947 89.7465 24.9048 90.3157 24.3529C90.9021 23.801 91.6265 23.525 92.4543 23.525C93.7134 23.525 94.6275 24.1632 95.2311 25.4395Z" fill="#6926AA"/>
<path d="M100.148 25.8882V33.477H97.9062V25.8882H96.9576V23.8013H97.9062V20.2484H100.148V23.8013H101.89V25.8882H100.148Z" fill="#6926AA"/>
<path d="M107.084 31.6659L102.738 23.7839H105.325L108.291 29.3548L111.051 23.7839H113.569L105.859 38.72H103.307L107.084 31.6659Z" fill="#6926AA"/>
<path d="M121.916 24.2149V27.1814C121.398 26.5606 120.95 26.1294 120.553 25.9052C120.157 25.6637 119.691 25.543 119.156 25.543C118.311 25.543 117.621 25.8362 117.052 26.4226C116.5 27.009 116.224 27.7506 116.224 28.6302C116.224 29.5443 116.5 30.2859 117.035 30.8723C117.569 31.4587 118.277 31.7519 119.104 31.7519C119.639 31.7519 120.122 31.6312 120.519 31.407C120.915 31.1828 121.381 30.7516 121.916 30.0962V33.0455C121.002 33.5112 120.105 33.7526 119.191 33.7526C117.69 33.7526 116.448 33.2697 115.431 32.3039C114.43 31.338 113.913 30.1135 113.913 28.682C113.913 27.2332 114.43 26.0259 115.448 25.0256C116.466 24.0252 117.725 23.5423 119.208 23.5423C120.157 23.5251 121.071 23.7493 121.916 24.2149Z" fill="#6926AA"/>
<path d="M123.877 19.7652C123.877 19.3685 124.015 19.0408 124.308 18.7476C124.601 18.4544 124.929 18.3164 125.326 18.3164C125.723 18.3164 126.067 18.4544 126.361 18.7476C126.654 19.0235 126.792 19.3685 126.792 19.7652C126.792 20.1618 126.654 20.5068 126.361 20.8C126.085 21.0932 125.74 21.2312 125.343 21.2312C124.946 21.2312 124.601 21.0932 124.308 20.8C124.032 20.524 123.877 20.1791 123.877 19.7652ZM126.447 23.801V38.737H124.205V23.801H126.447Z" fill="#6926AA"/>
<path d="M137.884 29.165H130.951C131.003 29.9584 131.261 30.5966 131.727 31.0622C132.175 31.5279 132.762 31.7521 133.486 31.7521C134.038 31.7521 134.504 31.6141 134.866 31.3554C135.228 31.0967 135.625 30.5966 136.09 29.8894L137.97 30.9415C137.677 31.4417 137.367 31.8556 137.039 32.2178C136.711 32.58 136.366 32.8559 136.004 33.0974C135.625 33.3216 135.228 33.4941 134.797 33.5976C134.366 33.701 133.9 33.7528 133.4 33.7528C131.951 33.7528 130.796 33.2871 129.916 32.3558C129.036 31.4244 128.605 30.1826 128.605 28.6476C128.605 27.1126 129.036 25.8881 129.881 24.9395C130.744 24.0081 131.865 23.5425 133.279 23.5425C134.711 23.5425 135.832 23.9909 136.66 24.905C137.487 25.8019 137.884 27.0609 137.884 28.6476V29.165ZM135.59 27.3369C135.28 26.1468 134.521 25.5431 133.331 25.5431C133.055 25.5431 132.796 25.5776 132.572 25.6639C132.331 25.7501 132.124 25.8708 131.917 26.0261C131.727 26.1813 131.554 26.371 131.416 26.5952C131.278 26.8194 131.175 27.0609 131.106 27.3369H135.59Z" fill="#6926AA"/>
<path d="M5.08551 33.0111C8.70741 37.0124 13.9333 39.5305 19.7456 39.5305C28.1449 39.5305 35.3197 34.2874 38.1828 26.8883L26.0063 18.3855L5.08551 33.0111Z" fill="#6926AA"/>
<path d="M25.9052 13.1596C26.3881 13.1423 26.8538 13.2975 27.216 13.608L39.358 22.1281C39.4442 21.352 39.4959 20.5586 39.4959 19.748C39.4959 8.83054 30.6482 0 19.748 0C8.84778 0 0 8.86503 0 19.7652C0 23.2146 0.879606 26.4571 2.4491 29.2856L24.6462 13.6252C25.0256 13.3665 25.4568 13.1941 25.9052 13.1596ZM14.2806 17.3851L9.74463 20.6448V14.8498H14.2806V17.3851Z" fill="#6926AA"/>
<path d="M9.74634 20.6449L14.2823 17.3852V14.8499H9.74634V20.6449Z" fill="white"/>
<path d="M27.218 13.625C26.8558 13.3146 26.3901 13.1593 25.9072 13.1766C25.4588 13.2111 25.0103 13.3663 24.6309 13.625L2.43384 29.2854C3.17547 30.6307 4.07232 31.8725 5.0899 33.0108L25.9934 18.3852L38.1699 26.8881C38.7563 25.3876 39.153 23.8008 39.3427 22.1451L27.218 13.625Z" fill="white"/>
<path d="M49.8267 46.8433H48.9299V48.913H47.8433V43.5319H49.8267C51.1203 43.5319 51.7757 44.2562 51.7757 45.2048C51.7757 46.0154 51.2238 46.8433 49.8267 46.8433ZM49.7922 45.981C50.3959 45.981 50.6718 45.6877 50.6718 45.2048C50.6718 44.7047 50.3959 44.4115 49.7922 44.4115H48.9299V45.981H49.7922Z" fill="#1D1D1B"/>
<path d="M55.8332 47.8954H53.6945L53.3323 48.913H52.194L54.1257 43.5319H55.3848L57.3164 48.913H56.1781L55.8332 47.8954ZM54.7639 44.7737L53.9877 47.0158H55.54L54.7639 44.7737Z" fill="#1D1D1B"/>
<path d="M60.0782 43.5319C61.3718 43.5319 62.0272 44.2735 62.0272 45.1876C62.0272 45.843 61.665 46.4984 60.8026 46.7398L62.0962 48.913H60.8544L59.6643 46.8088H59.1641V48.913H58.0776V43.5319H60.0782ZM60.0437 44.4287H59.1469V46.0154H60.0437C60.6474 46.0154 60.9061 45.705 60.9061 45.2221C60.9061 44.7392 60.6474 44.4287 60.0437 44.4287Z" fill="#1D1D1B"/>
<path d="M62.7023 43.5319H66.6519V44.3942H65.2204V48.8957H64.1338V44.3942H62.7023V43.5319Z" fill="#1D1D1B"/>
<path d="M72.0427 43.5319V48.913H70.9561L68.507 45.2221V48.913H67.4377V43.5319H68.5243L70.9733 47.2227V43.5319H72.0427Z" fill="#1D1D1B"/>
<path d="M76.2358 44.4116H74.2006V45.7568H76.0116V46.6192H74.2006V48.0507H76.2358V48.9303H73.1141V43.5492H76.2358V44.4116Z" fill="#1D1D1B"/>
<path d="M79.2246 43.5319C80.5181 43.5319 81.1735 44.2735 81.1735 45.1876C81.1735 45.843 80.8113 46.4984 79.9489 46.7398L81.2425 48.913H80.0007L78.8106 46.8088H78.3104V48.913H77.2239V43.5319H79.2246ZM79.1728 44.4287H78.276V46.0154H79.1728C79.7765 46.0154 80.0352 45.705 80.0352 45.2221C80.0524 44.7392 79.7765 44.4287 79.1728 44.4287Z" fill="#1D1D1B"/>
<path d="M96.4964 46.205C96.4964 49.3957 93.9093 52 90.7014 52C87.5106 52 84.9063 49.4129 84.9063 46.205C84.9063 42.997 87.4934 40.4099 90.7014 40.4099C93.9093 40.4099 96.4964 42.997 96.4964 46.205Z" fill="#FFD200"/>
<path d="M101.879 44.6355C100.982 44.6355 100.344 45.2909 100.344 46.205C100.344 47.1191 101 47.7745 101.879 47.7745C102.776 47.7745 103.432 47.1191 103.432 46.205C103.432 45.2909 102.776 44.6355 101.879 44.6355ZM101.879 49.2578C100.155 49.2578 98.8093 47.9125 98.8093 46.1878C98.8093 44.4631 100.155 43.1178 101.879 43.1178C103.604 43.1178 104.949 44.4631 104.949 46.1878C104.949 47.9125 103.604 49.2578 101.879 49.2578Z" fill="#1E1E1E"/>
<path d="M109.515 49.1026V45.7222C109.515 44.9978 109.101 44.5494 108.394 44.5494C107.601 44.5494 107.169 45.222 107.152 45.36V49.1026H105.634V43.3076H106.962V43.9112C107.325 43.411 108.118 43.1523 108.86 43.1523C109.48 43.1523 110.032 43.3766 110.429 43.7732C110.843 44.2044 111.067 44.8253 111.067 45.5497V49.1026H109.515Z" fill="#1E1E1E"/>
<path d="M120.845 49.206C120.172 49.206 119.672 49.0335 119.345 48.7058C119.017 48.3781 118.862 47.8952 118.862 47.2398V44.7562H118.034V43.3074H118.862V41.9622L120.379 41.6V43.3074H121.88V44.7562H120.379V47.2743C120.379 47.4985 120.517 47.7917 121.138 47.7917C121.414 47.7917 121.88 47.74 121.88 47.74V49.1025C121.535 49.1542 121.156 49.206 120.845 49.206Z" fill="#1E1E1E"/>
<path d="M116.177 45.6359C116.004 44.9287 115.487 44.5148 114.762 44.5148C113.986 44.5148 113.452 44.9287 113.279 45.6359H116.177ZM114.883 49.2578C113.02 49.2578 111.71 47.9987 111.71 46.1878C111.71 44.4113 113.003 43.1178 114.78 43.1178C116.453 43.1178 117.712 44.4286 117.712 46.1878C117.712 46.3775 117.694 46.5672 117.66 46.8087V46.8259H113.314C113.503 47.4986 114.073 47.878 114.918 47.878C115.608 47.878 116.004 47.5331 116.125 47.3778L117.384 48.0677C116.815 48.8439 115.952 49.2578 114.883 49.2578Z" fill="#1E1E1E"/>
</svg>
