<svg width="20" height="24" viewBox="0 0 20 24" fill="none" xmlns="http://www.w3.org/2000/svg">
<path d="M8.89605 18.5849C8.81551 18.5582 8.74314 18.5084 8.68658 18.4408C8.63002 18.3732 8.59139 18.2903 8.57477 18.2009L7.40596 12.3239C7.39363 12.2587 7.39337 12.1915 7.40522 12.1262C7.41706 12.061 7.44077 11.9989 7.47496 11.9436C7.50914 11.8883 7.55314 11.841 7.60437 11.8043C7.65561 11.7676 7.71307 11.7423 7.77341 11.7299C7.89551 11.7015 8.02303 11.7263 8.12841 11.7989C8.23379 11.8715 8.30856 11.9861 8.33658 12.1179L9.13886 16.1509L9.87744 13.7249C9.91827 13.5969 10.0038 13.4913 10.1156 13.4308C10.2274 13.3702 10.3567 13.3595 10.4757 13.4009C10.725 13.4859 10.8634 13.7679 10.7831 14.0309L9.97253 16.6909L11.8651 15.1099C11.9644 15.0271 12.0895 14.9894 12.214 15.0045C12.3385 15.0196 12.4527 15.0864 12.5326 15.1909C12.5713 15.2421 12.6001 15.3013 12.6172 15.3648C12.6343 15.4284 12.6394 15.495 12.6321 15.5608C12.6249 15.6265 12.6055 15.69 12.5751 15.7474C12.5446 15.8048 12.5038 15.855 12.4551 15.8949L9.34289 18.4949C9.28084 18.5482 9.20768 18.5843 9.12979 18.6C9.05191 18.6157 8.97166 18.6105 8.89605 18.5849V18.5849ZM15.8701 17.9529C15.8941 17.9729 15.9218 17.9869 15.9513 17.9929C16 18.004 16.0508 17.9939 16.0927 17.965C16.1346 17.936 16.1644 17.8904 16.1757 17.8379L18.6619 5.24388C18.6687 5.2089 18.6665 5.17258 18.6555 5.13888C18.6385 5.08813 18.6039 5.04655 18.5591 5.02302C18.5143 4.99948 18.4627 4.99584 18.4154 5.01288L5.00004 9.80988C4.96442 9.82156 4.93295 9.84474 4.90982 9.87631C4.88669 9.90788 4.87301 9.94635 4.8706 9.98657C4.8682 10.0268 4.87718 10.0668 4.89634 10.1014C4.91551 10.1359 4.94396 10.1633 4.97788 10.1799L7.85465 11.6559L15.5913 7.08388C16.0621 6.80588 16.5385 7.43888 16.1748 7.85888L11.0213 13.8229L15.8701 17.9529ZM8.10392 12.6579C8.03671 12.6976 7.9618 12.7195 7.88528 12.722C7.80876 12.7244 7.73279 12.7072 7.66354 12.6719L4.56335 11.0819C4.42985 11.0156 4.31 10.9209 4.21089 10.8035C4.11178 10.6861 4.03543 10.5483 3.98636 10.3984C3.93729 10.2485 3.9165 10.0894 3.92521 9.93056C3.93393 9.77176 3.97198 9.61647 4.03711 9.47388C4.17006 9.18388 4.40733 8.96388 4.6963 8.86088L18.1089 4.06388C18.7063 3.85088 19.3534 4.18788 19.5556 4.81688C19.6212 5.01988 19.6341 5.23788 19.5926 5.44788L17.1063 18.0419C16.978 18.6919 16.3742 19.1099 15.7575 18.9749C15.5807 18.9363 15.4147 18.8535 15.2728 18.7329L10.0316 14.2679C9.98143 14.2259 9.93993 14.173 9.90977 14.1125C9.87961 14.0521 9.86147 13.9855 9.85651 13.917C9.85155 13.8485 9.85989 13.7797 9.88098 13.7149C9.90208 13.6501 9.93547 13.5908 9.979 13.5409L13.4956 9.47188L8.10392 12.6579V12.6579Z" fill="white"/>
</svg>
