<svg width="48" height="48" viewBox="0 0 48 48" fill="none" xmlns="http://www.w3.org/2000/svg">
<path d="M48 15.7255L28.5766 31.8627L27.6911 32.5993C25.552 34.3785 22.448 34.3785 20.309 32.5993L19.4235 31.8627L3.05176e-05 15.7255L7.4483 10.4457L16.3531 4.13982L20.309 1.33442C22.448 -0.444807 25.552 -0.444807 27.6911 1.33442L31.6469 4.13982L40.5517 10.4457L48 15.7255Z" fill="#C8D1DB"/>
<path d="M39.6331 4.63981H39.6446L39.6561 4.63928C39.8599 4.62987 40.0339 4.78304 40.0517 4.98484V38.3969H7.94824V4.98485C7.96604 4.78304 8.14002 4.62987 8.34382 4.63928L8.35533 4.63981H8.36686H39.6331Z" fill="white" stroke="#F2F2F2"/>
<path d="M18.7472 22.2191C20.0431 23.6476 21.9129 24.5466 23.9926 24.5466C26.9979 24.5466 29.565 22.6747 30.5894 20.0333L26.2327 16.9977L18.7472 22.2191Z" fill="#6926AA"/>
<path d="M26.196 15.1321C26.3688 15.1259 26.5354 15.1813 26.665 15.2921L31.0095 18.3338C31.0403 18.0568 31.0588 17.7735 31.0588 17.4841C31.0588 13.5866 27.8931 10.4341 23.993 10.4341C20.0929 10.4341 16.9271 13.5989 16.9271 17.4903C16.9271 18.7217 17.2418 19.8793 17.8034 20.8891L25.7455 15.2983C25.8813 15.2059 26.0356 15.1444 26.196 15.1321ZM22.0367 16.6406L20.4138 17.8043V15.7355H22.0367V16.6406Z" fill="#6926AA"/>
<path d="M20.4147 17.8043L22.0377 16.6405V15.7354H20.4147V17.8043Z" fill="white"/>
<path d="M26.6661 15.2982C26.5366 15.1874 26.3699 15.132 26.1971 15.1382C26.0367 15.1505 25.8763 15.2059 25.7405 15.2982L17.7983 20.8891C18.0637 21.3693 18.3846 21.8126 18.7487 22.219L26.228 16.9977L30.5848 20.0332C30.7946 19.4975 30.9365 18.931 31.0044 18.3399L26.6661 15.2982Z" fill="white"/>
<path d="M48 15.7255V46.3449C48.0009 46.8058 47.8052 47.2453 47.4621 47.5531C47.1621 47.8419 46.7612 48.0023 46.3448 48H1.65517C1.23876 48.0023 0.837888 47.8419 0.537934 47.5531C0.194786 47.2453 -0.00087782 46.8058 2.96276e-06 46.3449L0 15.7255L19.4234 31.8627L20.309 32.5993C22.448 34.3785 25.552 34.3785 27.691 32.5993L28.5765 31.8627L48 15.7255Z" fill="#FFD15C"/>
<path d="M47.462 47.5531C47.162 47.8419 46.7612 48.0023 46.3448 48H1.65513C1.23871 48.0023 0.837842 47.8419 0.537888 47.5531L19.4234 31.8627L20.3089 32.5993C22.448 34.3785 25.5519 34.3785 27.691 32.5993L28.5765 31.8627L47.462 47.5531Z" fill="#F8B64C"/>
</svg>
