<svg width="32" height="32" viewBox="0 0 32 32" fill="none" xmlns="http://www.w3.org/2000/svg">
<rect width="32" height="32" rx="8" fill="#1D9FEF"/>
<path d="M26.6668 9.5188C25.8735 9.8668 25.0282 10.0975 24.1468 10.2095C25.0535 9.66813 25.7455 8.81746 26.0708 7.79213C25.2255 8.29613 24.2922 8.65213 23.2975 8.8508C22.4948 7.99613 21.3508 7.4668 20.1028 7.4668C17.6815 7.4668 15.7322 9.43213 15.7322 11.8415C15.7322 12.1881 15.7615 12.5215 15.8335 12.8388C12.1975 12.6615 8.98016 10.9188 6.81883 8.26413C6.4415 8.9188 6.22016 9.66813 6.22016 10.4748C6.22016 11.9895 7.00016 13.3321 8.16283 14.1095C7.46016 14.0961 6.77083 13.8921 6.18683 13.5708C6.18683 13.5841 6.18683 13.6015 6.18683 13.6188C6.18683 15.7441 7.70283 17.5095 9.69083 17.9161C9.33483 18.0135 8.94683 18.0601 8.54416 18.0601C8.26416 18.0601 7.9815 18.0441 7.71616 17.9855C8.28283 19.7175 9.89083 20.9908 11.8028 21.0321C10.3148 22.1961 8.4255 22.8975 6.38016 22.8975C6.0215 22.8975 5.6775 22.8815 5.3335 22.8375C7.27083 24.0868 9.56683 24.8001 12.0428 24.8001C20.0908 24.8001 24.4908 18.1335 24.4908 12.3548C24.4908 12.1615 24.4842 11.9748 24.4748 11.7895C25.3428 11.1735 26.0722 10.4041 26.6668 9.5188Z" fill="white"/>
</svg>
