<svg width="22" height="18" viewBox="0 0 22 18" fill="none" xmlns="http://www.w3.org/2000/svg">
<path d="M21.6668 2.5188C20.8735 2.8668 20.0282 3.09746 19.1468 3.20946C20.0535 2.66813 20.7455 1.81746 21.0708 0.79213C20.2255 1.29613 19.2922 1.65213 18.2975 1.8508C17.4948 0.99613 16.3508 0.466797 15.1028 0.466797C12.6815 0.466797 10.7322 2.43213 10.7322 4.84146C10.7322 5.18813 10.7615 5.52146 10.8335 5.8388C7.1975 5.66146 3.98016 3.9188 1.81883 1.26413C1.4415 1.9188 1.22016 2.66813 1.22016 3.4748C1.22016 4.98946 2.00016 6.33213 3.16283 7.10946C2.46016 7.09613 1.77083 6.89213 1.18683 6.5708C1.18683 6.58413 1.18683 6.60146 1.18683 6.6188C1.18683 8.74413 2.70283 10.5095 4.69083 10.9161C4.33483 11.0135 3.94683 11.0601 3.54416 11.0601C3.26416 11.0601 2.9815 11.0441 2.71616 10.9855C3.28283 12.7175 4.89083 13.9908 6.80283 14.0321C5.31483 15.1961 3.4255 15.8975 1.38016 15.8975C1.0215 15.8975 0.677496 15.8815 0.333496 15.8375C2.27083 17.0868 4.56683 17.8001 7.04283 17.8001C15.0908 17.8001 19.4908 11.1335 19.4908 5.3548C19.4908 5.16146 19.4842 4.9748 19.4748 4.78946C20.3428 4.17346 21.0722 3.40413 21.6668 2.5188Z" fill="white"/>
</svg>
