<svg width="32" height="32" viewBox="0 0 32 32" fill="none" xmlns="http://www.w3.org/2000/svg">
<rect width="32" height="32" rx="8" fill="#FF0005"/>
<path d="M26.3882 10.9354C26.1259 9.79599 25.1939 8.95536 24.072 8.82996C21.4152 8.53339 18.7261 8.53184 16.0494 8.53339C13.3722 8.53184 10.6827 8.53339 8.0259 8.82996C6.90462 8.95536 5.97331 9.79599 5.71102 10.9354C5.3377 12.5581 5.3335 14.3293 5.3335 16C5.3335 17.6706 5.3335 19.4417 5.70681 21.0641C5.96867 22.2033 6.9002 23.0439 8.02214 23.1696C10.6787 23.4664 13.368 23.4679 16.0452 23.4664C18.7228 23.4679 21.4114 23.4664 24.0678 23.1696C25.1891 23.0442 26.1212 22.2035 26.3835 21.0641C26.7571 19.4415 26.7584 17.6704 26.7584 16C26.7584 14.3293 26.7615 12.5581 26.3882 10.9354ZM13.2811 19.3253C13.2811 16.9554 13.2811 14.6102 13.2811 12.24C15.5518 13.4248 17.8074 14.6016 20.0924 15.7936C17.8145 16.9751 15.5577 18.1448 13.2811 19.3253Z" fill="white"/>
</svg>
